<?xml version="1.0" encoding="utf-8"?>
<!-- Generator: Adobe Illustrator 15.0.2, SVG Export Plug-In . SVG Version: 6.00 Build 0)  -->
<!DOCTYPE svg PUBLIC "-//W3C//DTD SVG 1.1//EN" "http://www.w3.org/Graphics/SVG/1.1/DTD/svg11.dtd">
<svg version="1.1" id="Layer_1" xmlns="http://www.w3.org/2000/svg" xmlns:xlink="http://www.w3.org/1999/xlink" x="0px" y="0px"
	 width="141.732px" height="141.732px" viewBox="-38.866 -38.866 141.732 141.732"
	 enable-background="new -38.866 -38.866 141.732 141.732" xml:space="preserve">
<g id="Layer_1_1_">
	
		<linearGradient id="SVGID_1_" gradientUnits="userSpaceOnUse" x1="357.1348" y1="-258.1309" x2="357.1348" y2="-149.0409" gradientTransform="matrix(1 0 0 -1 -325.1348 -171.8652)">
		<stop  offset="0" style="stop-color:#905CFB"/>
		<stop  offset="0.068" style="stop-color:#776CF9"/>
		<stop  offset="0.173" style="stop-color:#5681F7"/>
		<stop  offset="0.286" style="stop-color:#3B92F5"/>
		<stop  offset="0.41" style="stop-color:#269FF4"/>
		<stop  offset="0.547" style="stop-color:#17A9F3"/>
		<stop  offset="0.711" style="stop-color:#0FAEF2"/>
		<stop  offset="0.968" style="stop-color:#0CB0F2"/>
	</linearGradient>
	<path fill="url(#SVGID_1_)" d="M85.91,28.842c-0.211-3.271-2.617-5.924-5.842-6.443c-1.83-0.311-4.014-0.664-5.813-0.956
		l-0.422-0.068c-1.127-0.182-2.041-0.972-2.385-2.062c-0.66-2.11-1.523-4.209-2.57-6.25c-0.525-1.009-0.438-2.206,0.238-3.143
		c1.086-1.54,2.496-3.49,3.664-5.105c1.922-2.666,1.75-6.252-0.438-8.74c-1.428-1.582-2.924-3.068-4.453-4.428
		c-2.465-2.168-6.043-2.341-8.688-0.427c-1.633,1.162-3.594,2.576-5.133,3.687c-0.924,0.67-2.133,0.756-3.145,0.226
		c-1.961-1.023-4.055-1.897-6.234-2.6c-1.086-0.34-1.871-1.248-2.055-2.389c-0.316-1.859-0.703-4.233-1.02-6.199
		c-0.527-3.246-3.184-5.66-6.492-5.872C33-22.036,30.89-22.03,28.846-21.912c-3.271,0.21-5.924,2.618-6.443,5.842
		c-0.311,1.83-0.664,4.013-0.956,5.813l-0.068,0.422c-0.182,1.128-0.972,2.042-2.062,2.384c-2.11,0.66-4.208,1.524-6.25,2.57
		c-1.009,0.53-2.204,0.439-3.143-0.236c-1.54-1.088-3.49-2.498-5.105-3.664c-2.668-1.926-6.252-1.752-8.74,0.437
		C-5.504-6.918-6.99-5.422-8.35-3.894c-2.166,2.464-2.338,6.042-0.427,8.689C-7.614,6.428-6.2,8.39-5.09,9.928
		c0.67,0.926,0.756,2.132,0.226,3.145c-1.023,1.962-1.897,4.056-2.6,6.235c-0.34,1.084-1.248,1.87-2.388,2.055
		c-1.86,0.317-4.234,0.702-6.202,1.02c-3.246,0.526-5.66,3.183-5.872,6.49c-0.108,2.128-0.104,4.237,0.016,6.28
		c0.21,3.271,2.618,5.924,5.842,6.443c1.83,0.311,4.013,0.664,5.813,0.955l0.422,0.07c1.128,0.18,2.042,0.971,2.384,2.061
		c0.66,2.111,1.524,4.209,2.57,6.25c0.526,1.01,0.439,2.205-0.236,3.143c-1.088,1.539-2.498,3.49-3.664,5.105
		c-1.924,2.666-1.752,6.252,0.437,8.74c1.428,1.582,2.924,3.068,4.452,4.428c2.464,2.164,6.042,2.336,8.689,0.426
		c1.632-1.16,3.594-2.574,5.132-3.686c0.927-0.67,2.13-0.756,3.145-0.225c1.962,1.023,4.056,1.896,6.235,2.598
		c1.084,0.34,1.87,1.25,2.055,2.389c0.317,1.861,0.702,4.234,1.02,6.201c0.526,3.246,3.183,5.66,6.49,5.875
		c1.01,0.053,2.014,0.078,3.012,0.078c1.104,0,2.194-0.035,3.269-0.096c3.271-0.209,5.924-2.619,6.443-5.842
		c0.311-1.83,0.664-4.016,0.957-5.813l0.066-0.422c0.184-1.125,0.973-2.043,2.063-2.383c2.109-0.66,4.207-1.525,6.25-2.57
		c1.012-0.529,2.207-0.438,3.143,0.238c1.541,1.086,3.49,2.496,5.105,3.664c2.668,1.922,6.25,1.75,8.74-0.439
		c1.582-1.428,3.068-2.924,4.428-4.455c2.166-2.461,2.338-6.041,0.428-8.688c-1.164-1.631-2.578-3.596-3.688-5.131
		c-0.67-0.928-0.756-2.133-0.227-3.145c1.023-1.959,1.898-4.053,2.602-6.236c0.34-1.084,1.246-1.869,2.387-2.051
		c1.859-0.318,4.234-0.705,6.203-1.02c3.246-0.529,5.66-3.186,5.873-6.492C86.035,32.994,86.031,30.886,85.91,28.842z M32,62
		C15.458,62,2,48.543,2,32C2,15.458,15.458,2,32,2c16.543,0,30,13.458,30,30C62,48.543,48.543,62,32,62z"/>
	
		<linearGradient id="SVGID_2_" gradientUnits="userSpaceOnUse" x1="357.1387" y1="-153.8647" x2="357.1387" y2="-253.8657" gradientTransform="matrix(1 0 0 -1 -325.1348 -171.8652)">
		<stop  offset="0" style="stop-color:#3BEA62"/>
		<stop  offset="0.094" style="stop-color:#2FDB87"/>
		<stop  offset="0.196" style="stop-color:#24CEA8"/>
		<stop  offset="0.306" style="stop-color:#1BC3C3"/>
		<stop  offset="0.426" style="stop-color:#14BAD8"/>
		<stop  offset="0.56" style="stop-color:#10B5E7"/>
		<stop  offset="0.719" style="stop-color:#0DB1EF"/>
		<stop  offset="0.968" style="stop-color:#0CB0F2"/>
	</linearGradient>
	<path fill="url(#SVGID_2_)" d="M81.918,29.094c-0.088-1.386-1.117-2.52-2.502-2.744c-1.834-0.31-4.008-0.662-5.799-0.951
		l-0.422-0.068c-2.627-0.426-4.762-2.271-5.559-4.816c-0.594-1.894-1.369-3.779-2.303-5.605c-1.225-2.344-1.025-5.15,0.537-7.309
		c1.082-1.533,2.5-3.496,3.672-5.121c0.824-1.143,0.75-2.681-0.18-3.736c-1.313-1.454-2.705-2.838-4.117-4.094
		c-1.043-0.916-2.572-0.992-3.707-0.17c-1.635,1.163-3.59,2.571-5.121,3.678c-2.164,1.558-4.973,1.76-7.338,0.525
		c-1.76-0.92-3.643-1.706-5.594-2.334c-2.525-0.792-4.365-2.916-4.791-5.542c-0.32-1.852-0.705-4.241-1.023-6.22
		c-0.223-1.39-1.363-2.426-2.768-2.516c-1.958-0.099-3.92-0.095-5.807,0.016c-1.386,0.088-2.52,1.118-2.744,2.502
		c-0.31,1.834-0.661,4.008-0.951,5.798l-0.068,0.422c-0.426,2.63-2.27,4.763-4.816,5.561c-1.894,0.592-3.779,1.368-5.605,2.304
		C12.568-0.102,9.76-0.304,7.604-1.862c-1.533-1.084-3.495-2.5-5.121-3.674c-1.145-0.824-2.679-0.75-3.736,0.18
		C-2.708-4.042-4.092-2.652-5.348-1.24c-0.918,1.044-0.992,2.574-0.17,3.708c1.164,1.636,2.571,3.59,3.678,5.12
		c1.56,2.162,1.762,4.975,0.525,7.338c-0.92,1.76-1.705,3.643-2.334,5.594c-0.792,2.524-2.916,4.364-5.542,4.79
		c-1.852,0.318-4.241,0.704-6.22,1.022c-1.39,0.224-2.426,1.364-2.516,2.768c-0.099,1.956-0.094,3.918,0.016,5.807
		c0.088,1.387,1.118,2.52,2.502,2.744c1.834,0.311,4.008,0.662,5.798,0.951l0.423,0.068c2.63,0.426,4.762,2.271,5.56,4.816
		c0.592,1.893,1.368,3.779,2.304,5.605c1.227,2.344,1.024,5.15-0.534,7.309c-1.084,1.533-2.5,3.496-3.674,5.123
		c-0.824,1.141-0.75,2.68,0.181,3.734c1.313,1.453,2.703,2.838,4.115,4.094c1.044,0.916,2.574,0.994,3.708,0.172
		c1.637-1.164,3.591-2.574,5.12-3.68c1.221-0.883,2.65-1.328,4.088-1.328c1.108,0,2.221,0.266,3.25,0.803
		c1.761,0.92,3.643,1.705,5.595,2.334c2.523,0.793,4.363,2.916,4.79,5.543c0.317,1.852,0.703,4.238,1.021,6.217
		c0.224,1.389,1.364,2.426,2.768,2.516c1.959,0.104,3.918,0.096,5.807-0.016c1.387-0.088,2.52-1.119,2.744-2.502
		c0.311-1.834,0.662-4.008,0.951-5.797l0.068-0.422c0.426-2.629,2.271-4.764,4.816-5.559c1.893-0.594,3.779-1.371,5.605-2.305
		c2.346-1.225,5.15-1.023,7.309,0.535c1.533,1.082,3.496,2.5,5.123,3.672c1.143,0.824,2.68,0.75,3.734-0.18
		c1.453-1.313,2.838-2.703,4.094-4.115c0.918-1.045,0.992-2.574,0.172-3.709c-1.164-1.633-2.574-3.59-3.68-5.119
		c-1.559-2.162-1.762-4.975-0.525-7.338c0.92-1.76,1.705-3.643,2.334-5.594c0.793-2.523,2.916-4.363,5.543-4.789
		c1.852-0.32,4.242-0.707,6.217-1.025c1.389-0.221,2.426-1.365,2.516-2.768C82.031,32.944,82.027,30.982,81.918,29.094z M32,62
		C15.458,62,2,48.543,2,32C2,15.458,15.458,2,32,2c16.543,0,30,13.458,30,30C62,48.543,48.543,62,32,62z"/>
</g>
<path d="M32,62C15.458,62,2,48.543,2,32C2,15.458,15.458,2,32,2c16.543,0,30,13.458,30,30C62,48.543,48.543,62,32,62z"/>
<linearGradient id="SVGID_3_" gradientUnits="userSpaceOnUse" x1="32.0005" y1="66.166" x2="32.0005" y2="-2.5155">
	<stop  offset="0" style="stop-color:#905CFB"/>
	<stop  offset="0.068" style="stop-color:#776CF9"/>
	<stop  offset="0.173" style="stop-color:#5681F7"/>
	<stop  offset="0.286" style="stop-color:#3B92F5"/>
	<stop  offset="0.41" style="stop-color:#269FF4"/>
	<stop  offset="0.547" style="stop-color:#17A9F3"/>
	<stop  offset="0.711" style="stop-color:#0FAEF2"/>
	<stop  offset="0.968" style="stop-color:#0CB0F2"/>
</linearGradient>
<path display="none" fill="url(#SVGID_3_)" d="M32-2C13.252-2-2,13.252-2,32s15.252,34,34,34s34-15.252,34-34S50.748-2,32-2z M32,62
	C15.458,62,2,48.543,2,32C2,15.458,15.458,2,32,2c16.543,0,30,13.458,30,30C62,48.543,48.543,62,32,62z"/>
<linearGradient id="SVGID_4_" gradientUnits="userSpaceOnUse" x1="32.0005" y1="66.166" x2="32.0005" y2="-2.5155">
	<stop  offset="0" style="stop-color:#905CFB"/>
	<stop  offset="0.068" style="stop-color:#776CF9"/>
	<stop  offset="0.173" style="stop-color:#5681F7"/>
	<stop  offset="0.286" style="stop-color:#3B92F5"/>
	<stop  offset="0.41" style="stop-color:#269FF4"/>
	<stop  offset="0.547" style="stop-color:#17A9F3"/>
	<stop  offset="0.711" style="stop-color:#0FAEF2"/>
	<stop  offset="0.968" style="stop-color:#0CB0F2"/>
</linearGradient>
<path display="none" fill="url(#SVGID_4_)" d="M32-2C13.252-2-2,13.252-2,32s15.252,34,34,34s34-15.252,34-34S50.748-2,32-2z"/>
<g>
	<path fill="#FFFFFF" d="M20.041,40.25h-4.348l-2.613-4.324c-0.195-0.328-0.383-0.621-0.563-0.879s-0.361-0.479-0.545-0.662
		s-0.375-0.324-0.574-0.422s-0.416-0.146-0.65-0.146h-1.02v6.434H5.943V23.445h6c4.078,0,6.117,1.523,6.117,4.57
		c0,0.586-0.09,1.127-0.27,1.623s-0.434,0.943-0.762,1.342s-0.725,0.742-1.189,1.031s-0.982,0.516-1.553,0.68v0.047
		c0.25,0.078,0.492,0.205,0.727,0.381s0.461,0.381,0.68,0.615s0.428,0.486,0.627,0.756s0.381,0.533,0.545,0.791L20.041,40.25z
		 M9.729,26.281v4.676h1.641c0.813,0,1.465-0.234,1.957-0.703c0.5-0.477,0.75-1.066,0.75-1.77c0-1.469-0.879-2.203-2.637-2.203
		H9.729z"/>
	<path fill="#FFFFFF" d="M31.689,40.25H21.611V23.445h9.691v3.082h-5.906v3.738h5.496v3.07h-5.496v3.844h6.293V40.25z"/>
	<path fill="#FFFFFF" d="M33.611,39.605v-3.75c0.68,0.57,1.418,0.998,2.215,1.283s1.602,0.428,2.414,0.428
		c0.477,0,0.893-0.043,1.248-0.129s0.652-0.205,0.891-0.357s0.416-0.332,0.533-0.539s0.176-0.432,0.176-0.674
		c0-0.328-0.094-0.621-0.281-0.879s-0.443-0.496-0.768-0.715s-0.709-0.43-1.154-0.633s-0.926-0.41-1.441-0.621
		c-1.313-0.547-2.291-1.215-2.936-2.004s-0.967-1.742-0.967-2.859c0-0.875,0.176-1.627,0.527-2.256s0.83-1.146,1.436-1.553
		s1.307-0.705,2.104-0.896s1.641-0.287,2.531-0.287c0.875,0,1.65,0.053,2.326,0.158s1.299,0.268,1.869,0.486v3.504
		c-0.281-0.195-0.588-0.367-0.92-0.516s-0.674-0.271-1.025-0.369s-0.701-0.17-1.049-0.217s-0.678-0.07-0.99-0.07
		c-0.43,0-0.82,0.041-1.172,0.123s-0.648,0.197-0.891,0.346s-0.43,0.326-0.563,0.533s-0.199,0.439-0.199,0.697
		c0,0.281,0.074,0.533,0.223,0.756s0.359,0.434,0.633,0.633s0.605,0.395,0.996,0.586s0.832,0.389,1.324,0.592
		c0.672,0.281,1.275,0.58,1.811,0.896s0.994,0.674,1.377,1.072s0.676,0.854,0.879,1.365s0.305,1.107,0.305,1.787
		c0,0.938-0.178,1.725-0.533,2.361s-0.838,1.152-1.447,1.547s-1.318,0.678-2.127,0.85s-1.662,0.258-2.561,0.258
		c-0.922,0-1.799-0.078-2.631-0.234S34.221,39.918,33.611,39.605z"/>
	<path fill="#FFFFFF" d="M59.639,26.527h-4.793V40.25h-3.797V26.527h-4.77v-3.082h13.359V26.527z"/>
</g>
</svg>
